<svg xmlns="http://www.w3.org/2000/svg" width="512" height="512" viewBox="0 0 512 512">
<g>
<path d="M 354.08 498.01 C337.31,493.48 331.82,487.96 327.48,471.26 L 324.60 460.21 L 307.55 459.56 C279.49,458.48 259.27,457.11 224.59,453.93 C199.94,451.67 191.49,451.20 190.95,452.08 C190.56,452.72 188.80,458.21 187.05,464.28 C180.34,487.56 173.50,495.11 156.41,498.09 C151.12,499.01 146.65,499.01 136.54,498.07 C120.18,496.56 116.84,495.68 113.13,491.98 C109.20,488.05 107.25,481.81 105.47,467.41 C103.59,452.22 102.14,448.05 95.91,439.75 C89.94,431.80 62.56,407.92 54.48,403.62 C50.31,401.40 47.00,400.54 40.06,399.90 C25.27,398.54 20.00,394.40 15.99,381.00 C13.29,371.96 6.85,319.54 7.88,315.00 C10.30,304.43 16.95,298.68 30.37,295.57 C34.06,294.71 38.35,293.35 39.91,292.55 C44.40,290.22 51.49,281.64 57.13,271.68 C59.99,266.63 63.19,261.26 64.24,259.75 L 66.14 257.00 L 58.69 248.22 C46.74,234.14 44.98,229.81 48.45,223.10 C50.46,219.22 53.83,217.25 62.79,214.73 C69.87,212.75 72.89,212.57 99.60,212.54 L 128.71 212.50 L 144.60 204.33 C169.20,191.70 188.30,186.01 219.55,181.99 C244.75,178.76 263.76,179.55 293.50,185.06 C340.62,193.80 380.39,211.42 408.79,236.16 C421.86,247.54 433.36,262.89 438.08,275.25 C439.29,278.41 440.63,281.00 441.06,281.00 C441.49,281.00 442.78,279.47 443.94,277.60 C446.91,272.79 453.45,267.14 458.88,264.69 C465.95,261.49 477.75,261.68 485.05,265.10 C492.26,268.49 496.99,272.71 500.22,278.68 C507.90,292.86 504.72,311.05 492.28,324.13 L 486.93 329.76 L 492.03 333.43 C497.78,337.56 500.00,341.71 500.00,348.32 C500.00,356.66 492.84,363.38 483.97,363.38 C480.33,363.38 478.07,362.61 473.90,359.94 C465.84,354.78 457.62,347.66 452.16,341.10 L 447.29 335.24 L 446.69 351.37 C445.86,374.03 443.42,383.08 431.14,409.17 C424.45,423.38 421.11,432.96 413.02,461.25 C409.28,474.32 405.51,486.10 404.63,487.44 C402.18,491.19 396.79,494.87 390.35,497.19 C381.71,500.31 364.10,500.71 354.08,498.01 ZM 129.87 301.70 C136.31,297.45 139.38,291.99 139.83,284.02 C140.13,278.75 139.78,276.50 138.20,273.41 C132.24,261.82 119.66,257.81 107.93,263.75 C91.56,272.05 92.47,295.17 109.50,303.18 C115.38,305.95 124.46,305.29 129.87,301.70 ZM 205.81 270.54 C222.54,265.80 231.43,264.61 250.00,264.58 C269.07,264.55 276.15,265.42 294.79,270.11 C308.55,273.57 312.12,273.45 317.01,269.34 C324.86,262.73 324.94,252.33 317.18,245.80 C313.67,242.85 295.74,238.11 278.00,235.44 C263.99,233.33 237.78,233.35 223.50,235.47 C207.50,237.84 189.39,242.80 185.85,245.78 C177.43,252.86 178.18,264.99 187.37,270.51 C192.54,273.60 194.98,273.61 205.81,270.54 ZM 237.00 141.44 C207.48,133.26 187.97,107.82 188.01,77.59 C188.05,58.78 193.62,45.34 206.97,31.94 C213.02,25.87 217.59,22.30 222.70,19.66 C242.34,9.52 264.71,9.52 284.30,19.68 C295.05,25.25 306.47,36.99 311.84,48.00 C317.87,60.36 319.33,67.20 318.76,80.48 C318.43,88.22 317.64,93.43 316.08,98.00 C309.43,117.52 293.07,133.92 274.00,140.19 C265.40,143.02 245.16,143.70 237.00,141.44 Z" fill="rgba(0,0,0,1)"/>
</g>
</svg>